<svg xmlns="http://www.w3.org/2000/svg" xmlns:xlink="http://www.w3.org/1999/xlink" width="500" zoomAndPan="magnify" viewBox="0 0 375 374.999991" height="500" preserveAspectRatio="xMidYMid meet" version="1.0"><defs><g/><clipPath id="3ffdafcf75"><path d="M 68.875 68.875 L 305.875 68.875 L 305.875 305.875 L 68.875 305.875 Z M 68.875 68.875 " clip-rule="nonzero"/></clipPath><clipPath id="3c58215ea6"><path d="M 178 127 L 197 127 L 197 200 L 178 200 Z M 178 127 " clip-rule="nonzero"/></clipPath><clipPath id="4666e57ecf"><path d="M 148.289062 160.441406 L 187.960938 120.765625 L 227.097656 159.90625 L 187.425781 199.578125 Z M 148.289062 160.441406 " clip-rule="nonzero"/></clipPath><clipPath id="74f2a8b6b6"><path d="M 148.289062 160.441406 L 187.960938 120.765625 L 227.097656 159.90625 L 187.425781 199.578125 Z M 148.289062 160.441406 " clip-rule="nonzero"/></clipPath><clipPath id="a44667ab14"><path d="M 166.597656 121.035156 L 208.402344 121.035156 L 208.402344 162.835938 L 166.597656 162.835938 Z M 166.597656 121.035156 " clip-rule="nonzero"/></clipPath><clipPath id="418291fb1c"><path d="M 166.960938 138.109375 L 207.902344 138.109375 L 207.902344 156 L 166.960938 156 Z M 166.960938 138.109375 " clip-rule="nonzero"/></clipPath><clipPath id="e334b91f88"><path d="M 199 158 L 205 158 L 205 172.230469 L 199 172.230469 Z M 199 158 " clip-rule="nonzero"/></clipPath></defs><g clip-path="url(#3ffdafcf75)"><path fill="#403d30" d="M 187.5 306.117188 C 122.027344 306.117188 68.867188 252.957031 68.867188 187.492188 C 68.867188 122.023438 122.027344 68.867188 187.5 68.867188 C 252.96875 68.867188 306.117188 122.023438 306.117188 187.492188 C 306.117188 252.957031 252.96875 306.117188 187.5 306.117188 Z M 187.5 303.546875 C 251.542969 303.546875 303.546875 251.542969 303.546875 187.492188 C 303.546875 123.4375 251.542969 71.4375 187.5 71.4375 C 123.449219 71.4375 71.4375 123.4375 71.4375 187.492188 C 71.4375 251.542969 123.449219 303.546875 187.5 303.546875 Z M 260.234375 187.492188 C 260.234375 189.28125 258.777344 190.738281 256.988281 190.738281 C 255.203125 190.738281 253.746094 189.28125 253.746094 187.492188 C 253.746094 185.699219 255.203125 184.25 256.988281 184.25 C 258.777344 184.25 260.234375 185.699219 260.234375 187.492188 Z M 121.125 157.578125 C 120.835938 158.222656 120.082031 158.503906 119.429688 158.210938 C 118.785156 157.921875 118.496094 157.160156 118.785156 156.515625 C 130.613281 130.355469 156.945312 112.132812 187.5 112.132812 C 218.046875 112.132812 244.378906 130.355469 256.207031 156.515625 C 256.5 157.160156 256.207031 157.921875 255.5625 158.210938 C 254.914062 158.503906 254.160156 158.222656 253.859375 157.578125 C 242.441406 132.300781 217.011719 114.707031 187.5 114.707031 C 157.980469 114.707031 132.550781 132.300781 121.125 157.578125 Z M 253.859375 217.414062 C 254.160156 216.761719 254.914062 216.480469 255.5625 216.769531 C 256.207031 217.0625 256.5 217.824219 256.207031 218.46875 C 244.378906 244.625 218.046875 262.847656 187.5 262.847656 C 156.945312 262.847656 130.613281 244.625 118.785156 218.46875 C 118.496094 217.824219 118.785156 217.0625 119.429688 216.769531 C 120.082031 216.480469 120.835938 216.761719 121.125 217.414062 C 132.550781 242.679688 157.980469 260.277344 187.5 260.277344 C 217.011719 260.277344 242.441406 242.679688 253.859375 217.414062 Z M 121.246094 187.492188 C 121.246094 189.28125 119.789062 190.738281 118.007812 190.738281 C 116.207031 190.738281 114.757812 189.28125 114.757812 187.492188 C 114.757812 185.699219 116.207031 184.25 118.007812 184.25 C 119.789062 184.25 121.246094 185.699219 121.246094 187.492188 Z M 121.246094 187.492188 " fill-opacity="1" fill-rule="evenodd"/></g><g fill="#433b32" fill-opacity="1"><g transform="translate(87.944489, 184.964658)"><g><path d="M 2.453125 4.359375 C 2.441406 4.492188 2.429688 4.648438 2.421875 4.828125 C 2.421875 5.015625 2.421875 5.234375 2.421875 5.484375 C 2.441406 6.941406 2.828125 8.015625 3.578125 8.703125 C 4.335938 9.398438 5.363281 9.738281 6.65625 9.71875 C 8.007812 9.695312 9.023438 9.34375 9.703125 8.65625 C 10.390625 7.976562 10.722656 6.910156 10.703125 5.453125 C 10.703125 5.253906 10.695312 5.046875 10.6875 4.828125 C 10.675781 4.617188 10.660156 4.421875 10.640625 4.234375 Z M 6.703125 12.734375 C 5.578125 12.753906 4.59375 12.597656 3.75 12.265625 C 2.914062 11.929688 2.21875 11.441406 1.65625 10.796875 C 1.101562 10.160156 0.679688 9.382812 0.390625 8.46875 C 0.0976562 7.550781 -0.0546875 6.519531 -0.078125 5.375 C -0.0859375 4.851562 -0.0703125 4.242188 -0.03125 3.546875 C 0 2.847656 0.078125 2.164062 0.203125 1.5 L 12.8125 1.28125 C 12.945312 1.945312 13.039062 2.644531 13.09375 3.375 C 13.144531 4.101562 13.175781 4.726562 13.1875 5.25 C 13.207031 6.363281 13.101562 7.375 12.875 8.28125 C 12.644531 9.1875 12.265625 9.96875 11.734375 10.625 C 11.210938 11.28125 10.535156 11.789062 9.703125 12.15625 C 8.867188 12.519531 7.867188 12.710938 6.703125 12.734375 Z M 6.703125 12.734375 "/></g></g></g><g fill="#433b32" fill-opacity="1"><g transform="translate(89.482458, 207.252428)"><g><path d="M 12.984375 -1.140625 L 13.578125 1.703125 L 0.890625 4.3125 L 0.296875 1.46875 Z M 12.984375 -1.140625 "/></g></g></g><g fill="#433b32" fill-opacity="1"><g transform="translate(92.842683, 221.355381)"><g><path d="M 12.859375 3.21875 C 12.347656 1.96875 11.628906 1.203125 10.703125 0.921875 C 9.773438 0.640625 8.707031 0.742188 7.5 1.234375 C 6.90625 1.472656 6.394531 1.753906 5.96875 2.078125 C 5.550781 2.410156 5.226562 2.785156 5 3.203125 C 4.769531 3.628906 4.640625 4.085938 4.609375 4.578125 C 4.585938 5.078125 4.6875 5.601562 4.90625 6.15625 C 5.03125 6.445312 5.140625 6.695312 5.234375 6.90625 C 5.335938 7.125 5.4375 7.304688 5.53125 7.453125 L 9.71875 5.765625 L 10.8125 8.46875 L 4.875 10.859375 C 4.601562 10.597656 4.25 10.140625 3.8125 9.484375 C 3.382812 8.828125 2.957031 7.972656 2.53125 6.921875 C 2.164062 6.015625 1.972656 5.132812 1.953125 4.28125 C 1.941406 3.4375 2.09375 2.644531 2.40625 1.90625 C 2.726562 1.175781 3.21875 0.519531 3.875 -0.0625 C 4.539062 -0.65625 5.375 -1.15625 6.375 -1.5625 C 7.375 -1.96875 8.320312 -2.171875 9.21875 -2.171875 C 10.113281 -2.179688 10.941406 -2.019531 11.703125 -1.6875 C 12.460938 -1.363281 13.128906 -0.890625 13.703125 -0.265625 C 14.273438 0.359375 14.726562 1.082031 15.0625 1.90625 C 15.289062 2.46875 15.457031 2.992188 15.5625 3.484375 C 15.675781 3.972656 15.75 4.398438 15.78125 4.765625 C 15.820312 5.128906 15.832031 5.4375 15.8125 5.6875 C 15.800781 5.945312 15.789062 6.132812 15.78125 6.25 L 13.28125 6.359375 C 13.320312 5.910156 13.316406 5.414062 13.265625 4.875 C 13.222656 4.34375 13.085938 3.789062 12.859375 3.21875 Z M 12.859375 3.21875 "/></g></g></g><g fill="#433b32" fill-opacity="1"><g transform="translate(101.995386, 240.99471)"><g><path d="M 11.734375 -5.6875 L 13.28125 -3.234375 L 2.359375 3.71875 L 0.8125 1.265625 Z M 11.734375 -5.6875 "/></g></g></g><g fill="#433b32" fill-opacity="1"><g transform="translate(110.166598, 252.89554)"><g><path d="M 17.046875 -0.546875 L 15.21875 1.125 L 12.578125 -1.75 L 4.84375 5.3125 L 2.890625 3.15625 L 10.625 -3.90625 L 7.984375 -6.78125 L 9.8125 -8.453125 Z M 17.046875 -0.546875 "/></g></g></g><g fill="#433b32" fill-opacity="1"><g transform="translate(124.432005, 267.263901)"><g><path d="M 8.296875 5.875 C 8.441406 5.425781 8.582031 4.960938 8.71875 4.484375 C 8.851562 4.003906 8.988281 3.523438 9.125 3.046875 L 5.015625 0.125 C 4.609375 0.414062 4.203125 0.707031 3.796875 1 C 3.390625 1.289062 3 1.578125 2.625 1.859375 L 0.15625 0.109375 C 1.351562 -0.742188 2.472656 -1.53125 3.515625 -2.25 C 4.554688 -2.96875 5.546875 -3.632812 6.484375 -4.25 C 7.429688 -4.863281 8.34375 -5.4375 9.21875 -5.96875 C 10.09375 -6.5 10.96875 -7.003906 11.84375 -7.484375 L 14.109375 -5.875 C 13.941406 -4.894531 13.753906 -3.898438 13.546875 -2.890625 C 13.335938 -1.890625 13.101562 -0.84375 12.84375 0.25 C 12.582031 1.34375 12.285156 2.5 11.953125 3.71875 C 11.617188 4.945312 11.25 6.265625 10.84375 7.671875 Z M 11.21875 -4.3125 C 11.070312 -4.195312 10.851562 -4.046875 10.5625 -3.859375 C 10.269531 -3.671875 9.9375 -3.445312 9.5625 -3.1875 C 9.1875 -2.9375 8.769531 -2.660156 8.3125 -2.359375 C 7.863281 -2.054688 7.398438 -1.734375 6.921875 -1.390625 L 9.921875 0.734375 C 10.078125 0.160156 10.222656 -0.382812 10.359375 -0.90625 C 10.503906 -1.4375 10.628906 -1.921875 10.734375 -2.359375 C 10.847656 -2.796875 10.945312 -3.179688 11.03125 -3.515625 C 11.113281 -3.847656 11.175781 -4.113281 11.21875 -4.3125 Z M 11.21875 -4.3125 "/></g></g></g><g fill="#433b32" fill-opacity="1"><g transform="translate(143.141088, 279.207726)"><g><path d="M 10.296875 1.71875 L 9.3125 4.015625 L 1.375 0.59375 L 6.5 -11.296875 L 9.171875 -10.140625 L 5.03125 -0.546875 Z M 10.296875 1.71875 "/></g></g></g><g fill="#433b32" fill-opacity="1"><g transform="translate(160.881986, 285.860449)"><g/></g></g><g fill="#433b32" fill-opacity="1"><g transform="translate(173.551642, 288.618908)"><g><path d="M 1.5 0.125 L 2.5625 -12.78125 L 11.265625 -12.078125 L 11.0625 -9.640625 L 5.25 -10.109375 L 5.03125 -7.5625 L 10.203125 -7.140625 L 10.015625 -4.765625 L 4.84375 -5.1875 L 4.59375 -2.078125 L 10.84375 -1.5625 L 10.640625 0.875 Z M 1.5 0.125 "/></g></g></g><g fill="#433b32" fill-opacity="1"><g transform="translate(193.597622, 289.409226)"><g><path d="M 8.859375 -1.125 C 8.410156 -1.789062 7.921875 -2.46875 7.390625 -3.15625 C 6.867188 -3.84375 6.289062 -4.535156 5.65625 -5.234375 C 5.507812 -4.984375 5.320312 -4.640625 5.09375 -4.203125 C 4.875 -3.773438 4.660156 -3.320312 4.453125 -2.84375 C 4.253906 -2.375 4.0625 -1.921875 3.875 -1.484375 C 3.695312 -1.046875 3.566406 -0.703125 3.484375 -0.453125 L 0.1875 -0.03125 C 0.601562 -1.09375 1.101562 -2.21875 1.6875 -3.40625 C 2.269531 -4.601562 2.929688 -5.878906 3.671875 -7.234375 L -1.265625 -12.890625 L 2.234375 -13.34375 L 5.25 -9.640625 L 7.171875 -13.96875 L 10.484375 -14.390625 L 7.203125 -7.65625 C 8.410156 -6.445312 9.4375 -5.3125 10.28125 -4.25 C 11.132812 -3.1875 11.816406 -2.296875 12.328125 -1.578125 Z M 8.859375 -1.125 "/></g></g></g><g fill="#433b32" fill-opacity="1"><g transform="translate(214.620384, 285.736889)"><g><path d="M 1.421875 -0.5 L -2.84375 -12.734375 L 5.390625 -15.609375 L 6.203125 -13.28125 L 0.703125 -11.359375 L 1.53125 -8.96875 L 6.4375 -10.671875 L 7.234375 -8.40625 L 2.328125 -6.703125 L 3.34375 -3.765625 L 9.265625 -5.828125 L 10.078125 -3.515625 Z M 1.421875 -0.5 "/></g></g></g><g fill="#433b32" fill-opacity="1"><g transform="translate(233.176018, 278.316976)"><g><path d="M 7.46875 -7.3125 L 8.734375 -5.15625 L 1.296875 -0.765625 L -5.28125 -11.921875 L -2.78125 -13.390625 L 2.53125 -4.390625 Z M 7.46875 -7.3125 "/></g></g></g><g fill="#433b32" fill-opacity="1"><g transform="translate(249.235713, 267.872999)"><g><path d="M 5.921875 -8.609375 L 7.578125 -6.734375 L 1.125 -1 L -7.46875 -10.6875 L -5.296875 -12.609375 L 1.640625 -4.796875 Z M 5.921875 -8.609375 "/></g></g></g><g fill="#433b32" fill-opacity="1"><g transform="translate(263.026206, 254.532542)"><g><path d="M 0.90625 -1.203125 L -9.421875 -9.015625 L -4.15625 -15.984375 L -2.203125 -14.5 L -5.71875 -9.84375 L -3.6875 -8.3125 L -0.5625 -12.453125 L 1.34375 -11.015625 L -1.78125 -6.875 L 0.703125 -5 L 4.484375 -10 L 6.4375 -8.515625 Z M 0.90625 -1.203125 "/></g></g></g><g fill="#433b32" fill-opacity="1"><g transform="translate(274.511387, 238.016514)"><g><path d="M 4.25 -9.25 C 2.5625 -9.113281 0.859375 -8.90625 -0.859375 -8.625 C -2.585938 -8.34375 -4.257812 -7.972656 -5.875 -7.515625 L 1.828125 -3.96875 L 0.625 -1.359375 L -11.140625 -6.765625 L -10.140625 -8.921875 C -9.597656 -9.117188 -8.953125 -9.320312 -8.203125 -9.53125 C -7.453125 -9.738281 -6.660156 -9.929688 -5.828125 -10.109375 C -4.992188 -10.296875 -4.140625 -10.46875 -3.265625 -10.625 C -2.390625 -10.789062 -1.554688 -10.9375 -0.765625 -11.0625 L -7.703125 -14.25 L -6.5 -16.875 L 5.265625 -11.46875 Z M 4.25 -9.25 "/></g></g></g><g fill="#433b32" fill-opacity="1"><g transform="translate(283.08099, 216.746768)"><g><path d="M 1.8125 -7.1875 C 1.363281 -5.113281 0.453125 -3.660156 -0.921875 -2.828125 C -2.296875 -2.003906 -4.039062 -1.816406 -6.15625 -2.265625 C -7.207031 -2.492188 -8.101562 -2.851562 -8.84375 -3.34375 C -9.59375 -3.84375 -10.191406 -4.441406 -10.640625 -5.140625 C -11.097656 -5.847656 -11.382812 -6.625 -11.5 -7.46875 C -11.613281 -8.3125 -11.570312 -9.195312 -11.375 -10.125 C -11.257812 -10.664062 -11.117188 -11.144531 -10.953125 -11.5625 C -10.785156 -11.988281 -10.613281 -12.359375 -10.4375 -12.671875 C -10.257812 -12.984375 -10.09375 -13.238281 -9.9375 -13.4375 C -9.789062 -13.632812 -9.675781 -13.769531 -9.59375 -13.84375 L -7.453125 -12.53125 C -7.742188 -12.1875 -8.019531 -11.769531 -8.28125 -11.28125 C -8.539062 -10.789062 -8.738281 -10.21875 -8.875 -9.5625 C -8.96875 -9.125 -8.984375 -8.675781 -8.921875 -8.21875 C -8.867188 -7.769531 -8.710938 -7.351562 -8.453125 -6.96875 C -8.203125 -6.582031 -7.835938 -6.234375 -7.359375 -5.921875 C -6.890625 -5.617188 -6.296875 -5.390625 -5.578125 -5.234375 C -4.984375 -5.109375 -4.421875 -5.054688 -3.890625 -5.078125 C -3.359375 -5.109375 -2.878906 -5.226562 -2.453125 -5.4375 C -2.023438 -5.644531 -1.65625 -5.957031 -1.34375 -6.375 C -1.03125 -6.789062 -0.804688 -7.320312 -0.671875 -7.96875 C -0.585938 -8.382812 -0.535156 -8.765625 -0.515625 -9.109375 C -0.492188 -9.453125 -0.488281 -9.757812 -0.5 -10.03125 C -0.507812 -10.300781 -0.535156 -10.539062 -0.578125 -10.75 C -0.628906 -10.957031 -0.671875 -11.15625 -0.703125 -11.34375 L 1.75 -11.625 C 1.894531 -11.175781 1.988281 -10.5625 2.03125 -9.78125 C 2.082031 -9.007812 2.007812 -8.144531 1.8125 -7.1875 Z M 1.8125 -7.1875 "/></g></g></g><g fill="#433b32" fill-opacity="1"><g transform="translate(286.490813, 196.205902)"><g><path d="M 0 -1.5 L -12.953125 -1.546875 L -12.921875 -10.28125 L -10.46875 -10.265625 L -10.484375 -4.4375 L -7.9375 -4.4375 L -7.921875 -9.625 L -5.53125 -9.609375 L -5.546875 -4.421875 L -2.4375 -4.421875 L -2.40625 -10.6875 L 0.046875 -10.671875 Z M 0 -1.5 "/></g></g></g><g clip-path="url(#3c58215ea6)"><g clip-path="url(#4666e57ecf)"><g clip-path="url(#74f2a8b6b6)"><path fill="#a5a58d" d="M 183.667969 127.164062 C 182.3125 127.160156 181.039062 127.6875 180.078125 128.648438 C 179.121094 129.605469 178.59375 130.882812 178.59375 132.238281 L 178.59375 149.21875 C 178.59375 149.652344 178.941406 150 179.375 150 C 179.808594 150 180.15625 149.652344 180.15625 149.21875 L 180.15625 143.5625 L 183.988281 143.5625 L 183.988281 181.582031 L 180.175781 181.582031 C 180.167969 181.394531 180.15625 181.203125 180.15625 181.011719 L 180.15625 152.0625 C 180.15625 151.628906 179.808594 151.28125 179.375 151.28125 C 178.945312 151.28125 178.59375 151.628906 178.59375 152.0625 L 178.59375 181.011719 C 178.59375 183.78125 179.347656 186.5 180.773438 188.875 L 186.671875 198.707031 C 186.8125 198.941406 187.066406 199.085938 187.339844 199.085938 C 187.550781 199.085938 187.75 199.003906 187.894531 198.859375 C 187.9375 198.8125 187.976562 198.761719 188.011719 198.707031 L 193.445312 189.648438 C 193.667969 189.277344 193.546875 188.796875 193.179688 188.578125 C 192.808594 188.355469 192.328125 188.476562 192.105469 188.84375 L 190.578125 191.390625 L 184.105469 191.390625 L 182.113281 188.070312 C 181.203125 186.554688 180.605469 184.878906 180.332031 183.144531 L 184.769531 183.144531 C 184.769531 183.144531 184.769531 183.148438 184.769531 183.148438 C 184.769531 183.148438 184.769531 183.144531 184.769531 183.144531 L 194.339844 183.148438 C 194.144531 184.382812 193.800781 185.589844 193.269531 186.746094 C 193.089844 187.136719 193.261719 187.601562 193.652344 187.78125 C 193.960938 187.921875 194.308594 187.847656 194.53125 187.625 C 194.597656 187.5625 194.648438 187.484375 194.691406 187.398438 C 195.617188 185.378906 196.089844 183.230469 196.089844 181.011719 L 196.089844 132.238281 C 196.089844 129.4375 193.8125 127.164062 191.011719 127.164062 Z M 189.640625 192.953125 L 187.339844 196.785156 L 185.042969 192.953125 Z M 180.15625 139.347656 L 194.523438 139.34375 L 194.523438 142 L 180.15625 142 Z M 194.523438 181.011719 C 194.523438 181.203125 194.503906 181.390625 194.496094 181.582031 L 185.550781 181.582031 L 185.550781 143.5625 L 189.296875 143.5625 L 189.296875 172.820312 C 189.296875 173.253906 189.644531 173.605469 190.078125 173.605469 C 190.292969 173.605469 190.488281 173.515625 190.632812 173.375 C 190.773438 173.234375 190.859375 173.039062 190.859375 172.820312 L 190.859375 143.5625 L 194.523438 143.5625 Z M 194.523438 132.238281 L 194.523438 137.78125 L 180.15625 137.78125 L 180.15625 132.238281 C 180.15625 131.296875 180.523438 130.417969 181.1875 129.753906 C 181.847656 129.089844 182.730469 128.726562 183.667969 128.726562 L 191.011719 128.722656 C 192.949219 128.726562 194.523438 130.300781 194.523438 132.238281 Z M 190.078125 175.234375 C 190.511719 175.234375 190.859375 175.582031 190.859375 176.015625 L 190.859375 179.109375 C 190.859375 179.324219 190.773438 179.519531 190.632812 179.664062 C 190.492188 179.804688 190.296875 179.890625 190.078125 179.890625 C 189.648438 179.890625 189.296875 179.542969 189.296875 179.109375 L 189.296875 176.015625 C 189.296875 175.582031 189.648438 175.234375 190.078125 175.234375 Z M 190.078125 175.234375 " fill-opacity="1" fill-rule="nonzero"/></g></g></g><g clip-path="url(#a44667ab14)"><path fill="#ffffff" d="M 166.597656 121.035156 L 208.402344 121.035156 L 208.402344 162.835938 L 166.597656 162.835938 Z M 166.597656 121.035156 " fill-opacity="1" fill-rule="nonzero"/></g><g clip-path="url(#418291fb1c)"><path fill="#a5a58d" d="M 187.496094 155.304688 C 187.414062 155.304688 187.328125 155.289062 187.25 155.257812 L 167.410156 147.324219 C 167.160156 147.222656 166.996094 146.980469 166.996094 146.707031 C 166.996094 146.4375 167.160156 146.195312 167.410156 146.09375 L 187.25 138.15625 C 187.410156 138.09375 187.585938 138.09375 187.742188 138.15625 L 207.582031 146.09375 C 207.835938 146.195312 208 146.4375 208 146.707031 C 208 146.980469 207.835938 147.222656 207.582031 147.324219 L 204.277344 148.644531 C 203.941406 148.78125 203.554688 148.617188 203.417969 148.277344 C 203.28125 147.9375 203.449219 147.550781 203.785156 147.414062 L 205.558594 146.707031 L 187.496094 139.484375 L 169.4375 146.707031 L 187.496094 153.929688 L 198.582031 149.5 C 198.917969 149.359375 199.304688 149.527344 199.441406 149.867188 C 199.582031 150.207031 199.414062 150.589844 199.074219 150.726562 L 187.742188 155.257812 C 187.664062 155.289062 187.578125 155.304688 187.496094 155.304688 " fill-opacity="1" fill-rule="nonzero"/></g><path fill="#a5a58d" d="M 187.496094 165.226562 C 183.316406 165.226562 179.179688 163.765625 175.84375 161.113281 C 175.6875 160.988281 175.59375 160.796875 175.59375 160.597656 L 175.59375 152.660156 C 175.59375 152.296875 175.890625 152 176.253906 152 C 176.617188 152 176.914062 152.296875 176.914062 152.660156 L 176.914062 160.273438 C 179.972656 162.617188 183.71875 163.902344 187.496094 163.902344 C 191.273438 163.902344 195.019531 162.617188 198.078125 160.273438 L 198.078125 152.660156 C 198.078125 152.296875 198.375 152 198.742188 152 C 199.105469 152 199.402344 152.296875 199.402344 152.660156 L 199.402344 160.597656 C 199.402344 160.796875 199.308594 160.988281 199.152344 161.113281 C 195.816406 163.765625 191.675781 165.226562 187.496094 165.226562 " fill-opacity="1" fill-rule="nonzero"/><path fill="#a5a58d" d="M 202.046875 163.375 C 201.652344 163.375 201.257812 163.324219 200.878906 163.21875 C 200.527344 163.121094 200.320312 162.757812 200.417969 162.40625 C 200.515625 162.050781 200.882812 161.847656 201.230469 161.941406 C 201.761719 162.089844 202.335938 162.089844 202.863281 161.941406 C 203.210938 161.847656 203.578125 162.050781 203.675781 162.40625 C 203.773438 162.757812 203.566406 163.121094 203.214844 163.21875 C 202.839844 163.324219 202.441406 163.375 202.046875 163.375 " fill-opacity="1" fill-rule="nonzero"/><g clip-path="url(#e334b91f88)"><path fill="#a5a58d" d="M 200.769531 170.847656 C 201.550781 171.28125 202.542969 171.28125 203.328125 170.847656 L 202.382812 162.65625 C 202.367188 162.523438 202.394531 162.390625 202.457031 162.269531 C 202.457031 162.269531 202.707031 161.746094 202.707031 160.773438 C 202.707031 160.378906 202.4375 159.933594 202.046875 159.933594 C 201.65625 159.933594 201.386719 160.378906 201.386719 160.773438 C 201.386719 161.75 201.640625 162.273438 201.644531 162.277344 C 201.703125 162.394531 201.726562 162.527344 201.710938 162.65625 Z M 202.046875 172.5 C 201.1875 172.5 200.363281 172.226562 199.667969 171.707031 C 199.480469 171.566406 199.378906 171.335938 199.40625 171.105469 L 200.378906 162.679688 C 200.257812 162.367188 200.0625 161.726562 200.0625 160.773438 C 200.0625 159.734375 200.824219 158.613281 202.046875 158.613281 C 203.273438 158.613281 204.03125 159.734375 204.03125 160.773438 C 204.03125 161.726562 203.835938 162.367188 203.714844 162.679688 L 204.6875 171.105469 C 204.714844 171.335938 204.617188 171.566406 204.425781 171.707031 C 203.730469 172.226562 202.90625 172.5 202.046875 172.5 " fill-opacity="1" fill-rule="nonzero"/></g><path fill="#a5a58d" d="M 202.046875 159.933594 C 201.683594 159.933594 201.386719 159.636719 201.386719 159.273438 L 201.386719 149.371094 L 187.375 146.695312 C 187.015625 146.628906 186.777344 146.28125 186.847656 145.921875 C 186.914062 145.5625 187.261719 145.328125 187.621094 145.398438 L 202.171875 148.175781 C 202.484375 148.234375 202.707031 148.507812 202.707031 148.824219 L 202.707031 159.273438 C 202.707031 159.636719 202.410156 159.933594 202.046875 159.933594 " fill-opacity="1" fill-rule="nonzero"/><path fill="#a5a58d" d="M 187.386719 206.507812 C 191.6875 201.800781 197.285156 200.558594 203.136719 200.25 C 206.792969 200.054688 210.496094 200.433594 214.167969 200.558594 C 215.230469 200.601562 215.886719 201.144531 216.570312 201.984375 C 219.140625 205.109375 220.003906 208.53125 219.878906 212.625 C 219.597656 221.699219 219.796875 230.789062 219.796875 239.878906 C 219.796875 242.03125 219.683594 242.074219 217.644531 241.261719 C 210.996094 238.597656 204.183594 238.761719 197.382812 240.410156 C 193.625 241.332031 189.914062 242.183594 186.03125 241.808594 C 184.035156 241.613281 181.996094 241.445312 180.054688 240.957031 C 173.238281 239.238281 166.425781 238.441406 159.542969 240.453125 C 158.492188 240.761719 157.476562 241.179688 156.457031 241.597656 C 155.507812 241.988281 155.101562 241.625 155.058594 240.691406 C 155.046875 240.257812 155.046875 239.8125 155.046875 239.363281 C 155.046875 229.394531 155.085938 219.4375 155.003906 209.46875 C 154.988281 207.667969 155.605469 206.269531 156.398438 204.71875 C 158.0625 201.535156 160.378906 200.179688 163.96875 200.179688 C 168.703125 200.179688 173.433594 199.984375 178.070312 201.171875 C 181.632812 202.082031 184.898438 203.546875 187.386719 206.507812 Z M 188.179688 238.386719 C 196.253906 232.089844 205.355469 232.855469 214.390625 233.402344 C 214.390625 222.929688 214.390625 212.59375 214.390625 202.179688 C 208.332031 201.507812 202.328125 201.160156 196.503906 202.960938 C 194.144531 203.6875 191.980469 205.097656 189.828125 206.394531 C 188.542969 207.164062 188.125 208.476562 188.140625 210.082031 C 188.222656 218.167969 188.179688 226.265625 188.179688 234.351562 C 188.179688 235.59375 188.179688 236.851562 188.179688 238.386719 Z M 160.503906 202.164062 C 160.503906 212.707031 160.503906 223.066406 160.503906 233.429688 C 176.84375 232.828125 177.246094 232.914062 186.617188 238.203125 C 186.644531 237.898438 186.671875 237.644531 186.671875 237.394531 C 186.671875 228.039062 186.699219 218.683594 186.617188 209.328125 C 186.617188 208.503906 186.101562 207.527344 185.527344 206.898438 C 183.53125 204.71875 180.90625 203.589844 178.113281 202.835938 C 172.332031 201.285156 166.480469 201.535156 160.503906 202.164062 Z M 185.515625 240.328125 C 183.710938 237.773438 181.183594 236.640625 178.503906 235.871094 C 172.792969 234.226562 166.984375 234.363281 161.160156 235.007812 C 158.789062 235.273438 158.789062 235.3125 158.789062 232.855469 C 158.789062 224.046875 158.789062 215.25 158.789062 206.4375 C 158.789062 205.863281 158.730469 205.292969 158.703125 204.441406 C 157.320312 206.117188 156.582031 207.539062 156.59375 209.539062 C 156.707031 218.949219 156.652344 228.359375 156.652344 237.773438 C 156.652344 238.359375 156.652344 238.957031 156.652344 239.683594 C 157.726562 239.351562 158.605469 239.058594 159.5 238.820312 C 167.027344 236.792969 174.414062 237.675781 181.757812 239.8125 C 182.945312 240.160156 184.257812 240.160156 185.515625 240.328125 Z M 216.050781 204.746094 C 216.050781 205.65625 216.050781 206.5625 216.050781 207.457031 C 216.050781 216.101562 216.023438 224.730469 216.082031 233.375 C 216.09375 234.855469 215.621094 235.34375 214.140625 235.105469 C 212.632812 234.855469 211.082031 234.726562 209.546875 234.65625 C 204.128906 234.394531 198.75 234.617188 193.695312 236.863281 C 192.0625 237.589844 190.609375 238.734375 189.074219 239.683594 C 189.160156 239.894531 189.257812 240.117188 189.339844 240.328125 C 190.554688 240.171875 191.824219 240.171875 192.984375 239.839844 C 198.570312 238.164062 204.238281 237.242188 210.0625 237.871094 C 212.757812 238.164062 215.410156 238.890625 218.203125 239.449219 C 218.203125 238.929688 218.203125 238.332031 218.203125 237.730469 C 218.203125 228.261719 218.132812 218.796875 218.257812 209.34375 C 218.285156 207.371094 217.40625 206.074219 216.050781 204.746094 Z M 216.050781 204.746094 " fill-opacity="1" fill-rule="nonzero"/><path fill="#a5a58d" d="M 205.414062 220.960938 C 201.488281 220.960938 197.664062 221.503906 193.960938 222.871094 C 193.527344 223.039062 192.929688 222.773438 192.410156 222.707031 C 192.734375 222.285156 192.957031 221.644531 193.375 221.476562 C 198.261719 219.5625 203.375 219.117188 208.566406 219.410156 C 208.945312 219.4375 209.308594 219.996094 209.671875 220.304688 C 209.292969 220.527344 208.929688 220.890625 208.539062 220.933594 C 207.492188 221.015625 206.445312 220.960938 205.414062 220.960938 Z M 205.414062 220.960938 " fill-opacity="1" fill-rule="nonzero"/><path fill="#a5a58d" d="M 204.824219 207.960938 C 206.082031 207.960938 207.351562 207.902344 208.597656 208 C 208.972656 208.027344 209.308594 208.476562 209.671875 208.742188 C 209.265625 208.992188 208.890625 209.410156 208.46875 209.453125 C 204.824219 209.800781 201.167969 210 197.535156 210.402344 C 196.253906 210.542969 195.039062 211.183594 193.765625 211.476562 C 193.347656 211.574219 192.84375 211.3125 192.382812 211.199219 C 192.675781 210.808594 192.914062 210.164062 193.277344 210.066406 C 197.074219 209.117188 200.914062 208.265625 204.726562 207.402344 C 204.757812 207.597656 204.796875 207.777344 204.824219 207.960938 Z M 204.824219 207.960938 " fill-opacity="1" fill-rule="nonzero"/><path fill="#a5a58d" d="M 205.957031 226.65625 C 201.824219 226.65625 197.773438 227.1875 193.863281 228.625 C 193.460938 228.78125 192.914062 228.554688 192.425781 228.515625 C 192.71875 228.082031 192.914062 227.425781 193.304688 227.257812 C 198.179688 225.34375 203.277344 224.8125 208.46875 225.175781 C 208.875 225.203125 209.265625 225.695312 209.65625 225.972656 C 209.238281 226.210938 208.847656 226.574219 208.414062 226.628906 C 207.617188 226.726562 206.78125 226.65625 205.957031 226.65625 Z M 205.957031 226.65625 " fill-opacity="1" fill-rule="nonzero"/><path fill="#a5a58d" d="M 204.769531 214.746094 C 201.140625 215.570312 197.523438 216.394531 193.890625 217.175781 C 193.429688 217.273438 192.914062 217.078125 192.425781 217.023438 C 192.734375 216.589844 192.941406 215.933594 193.347656 215.765625 C 198.304688 213.796875 203.484375 213.390625 208.75 213.710938 C 209.070312 213.726562 209.363281 214.1875 209.671875 214.4375 C 209.335938 214.703125 209.015625 215.191406 208.652344 215.207031 C 207.394531 215.304688 206.125 215.25 204.867188 215.25 C 204.839844 215.082031 204.8125 214.914062 204.769531 214.746094 Z M 204.769531 214.746094 " fill-opacity="1" fill-rule="nonzero"/><path fill="#a5a58d" d="M 169.34375 220.960938 C 168.351562 220.960938 167.359375 221.03125 166.382812 220.933594 C 165.949219 220.890625 165.574219 220.457031 165.167969 220.207031 C 165.519531 219.925781 165.851562 219.4375 166.230469 219.421875 C 171.480469 219.128906 176.632812 219.578125 181.578125 221.53125 C 181.96875 221.6875 182.175781 222.273438 182.46875 222.664062 C 181.96875 222.761719 181.367188 223.054688 180.960938 222.902344 C 177.207031 221.503906 173.324219 220.945312 169.34375 220.960938 Z M 169.34375 220.960938 " fill-opacity="1" fill-rule="nonzero"/><path fill="#a5a58d" d="M 182.527344 211.421875 C 182.050781 211.449219 181.546875 211.589844 181.101562 211.492188 C 178.058594 210.863281 175.042969 210.066406 171.96875 209.578125 C 170.152344 209.285156 168.253906 209.523438 166.398438 209.425781 C 165.980469 209.398438 165.585938 208.964844 165.183594 208.726562 C 165.53125 208.476562 165.867188 208.015625 166.242188 207.988281 C 171.496094 207.582031 176.632812 208.140625 181.578125 210.039062 C 181.96875 210.195312 182.289062 210.570312 182.636719 210.835938 C 182.59375 211.03125 182.566406 211.226562 182.527344 211.421875 Z M 182.527344 211.421875 " fill-opacity="1" fill-rule="nonzero"/><path fill="#a5a58d" d="M 170.335938 224.605469 C 174.050781 225.46875 177.765625 226.292969 181.464844 227.230469 C 181.871094 227.328125 182.121094 228.011719 182.441406 228.429688 C 181.96875 228.515625 181.4375 228.792969 181.046875 228.652344 C 176.492188 226.964844 171.789062 226.488281 166.984375 226.644531 C 166.648438 226.65625 166.300781 226.753906 166.007812 226.65625 C 165.699219 226.546875 165.449219 226.265625 165.183594 226.054688 C 165.449219 225.777344 165.683594 225.273438 165.964844 225.234375 C 167.375 225.078125 168.800781 225.050781 170.222656 224.980469 C 170.265625 224.839844 170.292969 224.730469 170.335938 224.605469 Z M 170.335938 224.605469 " fill-opacity="1" fill-rule="nonzero"/><path fill="#a5a58d" d="M 169.566406 215.09375 C 168.464844 215.152344 167.375 215.261719 166.273438 215.21875 C 165.894531 215.207031 165.546875 214.773438 165.183594 214.523438 C 165.519531 214.242188 165.839844 213.742188 166.203125 213.726562 C 171.464844 213.417969 176.632812 213.824219 181.589844 215.792969 C 181.96875 215.945312 182.175781 216.546875 182.457031 216.9375 C 181.980469 217.035156 181.476562 217.289062 181.03125 217.1875 C 177.234375 216.394531 173.464844 215.527344 169.679688 214.675781 C 169.636719 214.828125 169.59375 214.957031 169.566406 215.09375 Z M 169.566406 215.09375 " fill-opacity="1" fill-rule="nonzero"/><g fill="#433b32" fill-opacity="1"><g transform="translate(101.500067, 160.340325)"><g><path d="M 1.078125 -10.390625 L 3.4375 -9.546875 L 0.515625 -1.40625 L -11.671875 -5.796875 L -10.6875 -8.53125 L -0.859375 -4.984375 Z M 1.078125 -10.390625 "/></g></g></g><g fill="#433b32" fill-opacity="1"><g transform="translate(105.473369, 149.447914)"><g><path d="M 0.6875 -1.328125 L -10.796875 -7.3125 L -6.75 -15.0625 L -4.578125 -13.921875 L -7.28125 -8.75 L -5.015625 -7.578125 L -2.609375 -12.1875 L -0.5 -11.078125 L -2.90625 -6.46875 L -0.140625 -5.046875 L 2.75 -10.609375 L 4.921875 -9.46875 Z M 0.6875 -1.328125 "/></g></g></g><g fill="#433b32" fill-opacity="1"><g transform="translate(111.156905, 138.527932)"><g><path d="M 5.984375 -8.21875 C 5.535156 -8.363281 5.070312 -8.507812 4.59375 -8.65625 C 4.113281 -8.800781 3.632812 -8.945312 3.15625 -9.09375 L 0.1875 -5.015625 C 0.476562 -4.609375 0.765625 -4.195312 1.046875 -3.78125 C 1.328125 -3.363281 1.609375 -2.96875 1.890625 -2.59375 L 0.109375 -0.15625 C -0.722656 -1.375 -1.488281 -2.503906 -2.1875 -3.546875 C -2.894531 -4.597656 -3.546875 -5.597656 -4.140625 -6.546875 C -4.742188 -7.492188 -5.304688 -8.40625 -5.828125 -9.28125 C -6.359375 -10.164062 -6.859375 -11.050781 -7.328125 -11.9375 L -5.6875 -14.1875 C -4.71875 -14 -3.726562 -13.796875 -2.71875 -13.578125 C -1.707031 -13.359375 -0.660156 -13.109375 0.421875 -12.828125 C 1.515625 -12.554688 2.664062 -12.25 3.875 -11.90625 C 5.09375 -11.5625 6.40625 -11.171875 7.8125 -10.734375 Z M -4.171875 -11.28125 C -4.054688 -11.125 -3.898438 -10.898438 -3.703125 -10.609375 C -3.515625 -10.316406 -3.296875 -9.984375 -3.046875 -9.609375 C -2.804688 -9.234375 -2.535156 -8.816406 -2.234375 -8.359375 C -1.941406 -7.898438 -1.625 -7.425781 -1.28125 -6.9375 L 0.875 -9.890625 C 0.300781 -10.066406 -0.242188 -10.226562 -0.765625 -10.375 C -1.285156 -10.53125 -1.765625 -10.660156 -2.203125 -10.765625 C -2.640625 -10.878906 -3.023438 -10.984375 -3.359375 -11.078125 C -3.703125 -11.171875 -3.972656 -11.238281 -4.171875 -11.28125 Z M -4.171875 -11.28125 "/></g></g></g><g fill="#433b32" fill-opacity="1"><g transform="translate(119.738274, 126.94063)"><g><path d="M -5.53125 -12.984375 C -4.15625 -14.359375 -2.851562 -15.171875 -1.625 -15.421875 C -0.40625 -15.671875 0.71875 -15.28125 1.75 -14.25 C 2.394531 -13.601562 2.765625 -12.929688 2.859375 -12.234375 C 2.960938 -11.546875 2.851562 -10.804688 2.53125 -10.015625 C 2.945312 -9.960938 3.398438 -9.890625 3.890625 -9.796875 C 4.390625 -9.703125 4.898438 -9.597656 5.421875 -9.484375 C 5.941406 -9.367188 6.46875 -9.226562 7 -9.0625 C 7.539062 -8.894531 8.054688 -8.722656 8.546875 -8.546875 L 6.234375 -6.25 C 5.765625 -6.375 5.289062 -6.503906 4.8125 -6.640625 C 4.332031 -6.773438 3.851562 -6.894531 3.375 -7 C 2.90625 -7.101562 2.453125 -7.203125 2.015625 -7.296875 C 1.578125 -7.390625 1.164062 -7.453125 0.78125 -7.484375 L -0.234375 -6.453125 L 3.109375 -3.109375 L 1.0625 -1.0625 L -7.96875 -10.09375 C -7.601562 -10.625 -7.195312 -11.144531 -6.75 -11.65625 C -6.3125 -12.164062 -5.90625 -12.609375 -5.53125 -12.984375 Z M -3.640625 -11.359375 C -3.785156 -11.210938 -3.914062 -11.078125 -4.03125 -10.953125 C -4.144531 -10.828125 -4.253906 -10.703125 -4.359375 -10.578125 L -1.875 -8.09375 L -1.28125 -8.6875 C -0.507812 -9.457031 -0.0546875 -10.109375 0.078125 -10.640625 C 0.222656 -11.171875 0.0625 -11.671875 -0.40625 -12.140625 C -0.851562 -12.585938 -1.335938 -12.734375 -1.859375 -12.578125 C -2.390625 -12.429688 -2.984375 -12.023438 -3.640625 -11.359375 Z M -3.640625 -11.359375 "/></g></g></g><g fill="#433b32" fill-opacity="1"><g transform="translate(129.215537, 117.468699)"><g><path d="M 8.25 -5.96875 C 6.707031 -6.6875 5.117188 -7.34375 3.484375 -7.9375 C 1.847656 -8.539062 0.207031 -9.039062 -1.4375 -9.4375 L 3.546875 -2.5625 L 1.21875 -0.875 L -6.375 -11.359375 L -4.453125 -12.75 C -3.890625 -12.65625 -3.226562 -12.515625 -2.46875 -12.328125 C -1.71875 -12.148438 -0.929688 -11.9375 -0.109375 -11.6875 C 0.703125 -11.4375 1.53125 -11.160156 2.375 -10.859375 C 3.21875 -10.566406 4.019531 -10.28125 4.78125 -10 L 0.296875 -16.1875 L 2.625 -17.890625 L 10.21875 -7.40625 Z M 8.25 -5.96875 "/></g></g></g><g fill="#433b32" fill-opacity="1"><g transform="translate(141.743108, 108.793471)"><g><path d="M -4.921875 -12.078125 L -2.375 -13.484375 L 3.859375 -2.125 L 1.3125 -0.71875 Z M -4.921875 -12.078125 "/></g></g></g><g fill="#433b32" fill-opacity="1"><g transform="translate(147.830375, 105.239675)"><g><path d="M 9.46875 -3.765625 C 8.15625 -4.828125 6.773438 -5.847656 5.328125 -6.828125 C 3.890625 -7.816406 2.425781 -8.707031 0.9375 -9.5 L 4.0625 -1.609375 L 1.390625 -0.546875 L -3.390625 -12.59375 L -1.171875 -13.46875 C -0.640625 -13.226562 -0.0351562 -12.921875 0.640625 -12.546875 C 1.328125 -12.179688 2.035156 -11.78125 2.765625 -11.34375 C 3.492188 -10.90625 4.226562 -10.441406 4.96875 -9.953125 C 5.71875 -9.460938 6.425781 -8.988281 7.09375 -8.53125 L 4.265625 -15.640625 L 6.953125 -16.703125 L 11.734375 -4.65625 Z M 9.46875 -3.765625 "/></g></g></g><g fill="#433b32" fill-opacity="1"><g transform="translate(161.846363, 99.798294)"><g><path d="M 5.328125 -12.125 C 4.003906 -11.832031 3.128906 -11.253906 2.703125 -10.390625 C 2.273438 -9.523438 2.203125 -8.453125 2.484375 -7.171875 C 2.617188 -6.554688 2.8125 -6.007812 3.0625 -5.53125 C 3.3125 -5.0625 3.625 -4.675781 4 -4.375 C 4.382812 -4.082031 4.816406 -3.882812 5.296875 -3.78125 C 5.773438 -3.675781 6.304688 -3.6875 6.890625 -3.8125 C 7.203125 -3.882812 7.472656 -3.953125 7.703125 -4.015625 C 7.929688 -4.078125 8.125 -4.140625 8.28125 -4.203125 L 7.3125 -8.609375 L 10.15625 -9.234375 L 11.53125 -2.96875 C 11.21875 -2.757812 10.703125 -2.492188 9.984375 -2.171875 C 9.265625 -1.847656 8.347656 -1.566406 7.234375 -1.328125 C 6.285156 -1.117188 5.394531 -1.078125 4.5625 -1.203125 C 3.726562 -1.328125 2.972656 -1.609375 2.296875 -2.046875 C 1.617188 -2.484375 1.046875 -3.078125 0.578125 -3.828125 C 0.109375 -4.585938 -0.238281 -5.488281 -0.46875 -6.53125 C -0.695312 -7.59375 -0.738281 -8.566406 -0.59375 -9.453125 C -0.445312 -10.335938 -0.148438 -11.128906 0.296875 -11.828125 C 0.753906 -12.523438 1.335938 -13.097656 2.046875 -13.546875 C 2.753906 -14.003906 3.546875 -14.332031 4.421875 -14.53125 C 5.015625 -14.65625 5.554688 -14.726562 6.046875 -14.75 C 6.546875 -14.78125 6.976562 -14.78125 7.34375 -14.75 C 7.71875 -14.726562 8.03125 -14.6875 8.28125 -14.625 C 8.53125 -14.570312 8.710938 -14.523438 8.828125 -14.484375 L 8.5 -12.015625 C 8.070312 -12.140625 7.585938 -12.222656 7.046875 -12.265625 C 6.503906 -12.304688 5.929688 -12.257812 5.328125 -12.125 Z M 5.328125 -12.125 "/></g></g></g><g fill="#433b32" fill-opacity="1"><g transform="translate(175.882403, 97.040498)"><g/></g></g><g fill="#433b32" fill-opacity="1"><g transform="translate(181.528904, 96.27427)"><g><path d="M 6.5625 0.328125 C 5.644531 0.316406 4.859375 0.179688 4.203125 -0.078125 C 3.546875 -0.335938 3.003906 -0.695312 2.578125 -1.15625 C 2.148438 -1.625 1.835938 -2.171875 1.640625 -2.796875 C 1.441406 -3.421875 1.347656 -4.113281 1.359375 -4.875 L 1.421875 -12.9375 L 4.328125 -12.921875 L 4.265625 -5.109375 C 4.253906 -4.585938 4.304688 -4.140625 4.421875 -3.765625 C 4.546875 -3.398438 4.707031 -3.097656 4.90625 -2.859375 C 5.101562 -2.628906 5.347656 -2.460938 5.640625 -2.359375 C 5.941406 -2.265625 6.265625 -2.210938 6.609375 -2.203125 C 7.316406 -2.203125 7.894531 -2.414062 8.34375 -2.84375 C 8.789062 -3.269531 9.019531 -4.007812 9.03125 -5.0625 L 9.09375 -12.875 L 12.015625 -12.859375 L 11.953125 -4.796875 C 11.941406 -4.035156 11.828125 -3.335938 11.609375 -2.703125 C 11.390625 -2.066406 11.054688 -1.523438 10.609375 -1.078125 C 10.171875 -0.628906 9.613281 -0.28125 8.9375 -0.03125 C 8.269531 0.207031 7.476562 0.328125 6.5625 0.328125 Z M 6.5625 0.328125 "/></g></g></g><g fill="#433b32" fill-opacity="1"><g transform="translate(195.6509, 96.43099)"><g><path d="M 10.03125 1.734375 C 9.46875 0.140625 8.828125 -1.453125 8.109375 -3.046875 C 7.398438 -4.640625 6.617188 -6.160156 5.765625 -7.609375 L 4.3125 0.75 L 1.484375 0.25 L 3.6875 -12.515625 L 6.015625 -12.109375 C 6.347656 -11.617188 6.707031 -11.039062 7.09375 -10.375 C 7.488281 -9.707031 7.882812 -8.992188 8.28125 -8.234375 C 8.675781 -7.472656 9.0625 -6.6875 9.4375 -5.875 C 9.820312 -5.070312 10.175781 -4.304688 10.5 -3.578125 L 11.796875 -11.109375 L 14.640625 -10.609375 L 12.4375 2.15625 Z M 10.03125 1.734375 "/></g></g></g><g fill="#433b32" fill-opacity="1"><g transform="translate(210.606374, 99.348956)"><g><path d="M 5.21875 -11.953125 L 8 -11.109375 L 4.21875 1.28125 L 1.4375 0.4375 Z M 5.21875 -11.953125 "/></g></g></g><g fill="#433b32" fill-opacity="1"><g transform="translate(217.409928, 101.25568)"><g><path d="M 4.890625 2.171875 C 4.859375 0.972656 4.847656 -0.257812 4.859375 -1.53125 C 4.878906 -2.8125 4.914062 -4.066406 4.96875 -5.296875 C 5.019531 -6.523438 5.085938 -7.695312 5.171875 -8.8125 C 5.253906 -9.925781 5.335938 -10.910156 5.421875 -11.765625 L 8.359375 -10.46875 C 8.285156 -9.675781 8.203125 -8.820312 8.109375 -7.90625 C 8.023438 -7 7.945312 -6.09375 7.875 -5.1875 C 7.8125 -4.28125 7.75 -3.410156 7.6875 -2.578125 C 7.632812 -1.742188 7.609375 -1.015625 7.609375 -0.390625 C 8.054688 -0.816406 8.570312 -1.328125 9.15625 -1.921875 C 9.75 -2.523438 10.359375 -3.15625 10.984375 -3.8125 C 11.609375 -4.476562 12.226562 -5.144531 12.84375 -5.8125 C 13.46875 -6.488281 14.046875 -7.125 14.578125 -7.71875 L 17.421875 -6.453125 C 16.816406 -5.816406 16.128906 -5.09375 15.359375 -4.28125 C 14.597656 -3.476562 13.78125 -2.644531 12.90625 -1.78125 C 12.03125 -0.914062 11.125 -0.0507812 10.1875 0.8125 C 9.257812 1.6875 8.34375 2.515625 7.4375 3.296875 Z M 4.890625 2.171875 "/></g></g></g><g fill="#433b32" fill-opacity="1"><g transform="translate(230.57452, 107.256563)"><g><path d="M 1.265625 0.8125 L 8.21875 -10.109375 L 15.59375 -5.421875 L 14.28125 -3.359375 L 9.359375 -6.5 L 7.984375 -4.34375 L 12.359375 -1.546875 L 11.078125 0.46875 L 6.703125 -2.328125 L 5.03125 0.296875 L 10.3125 3.671875 L 9 5.734375 Z M 1.265625 0.8125 "/></g></g></g><g fill="#433b32" fill-opacity="1"><g transform="translate(240.969394, 113.903908)"><g><path d="M 12.546875 -6.46875 C 14.023438 -5.195312 14.929688 -3.960938 15.265625 -2.765625 C 15.609375 -1.578125 15.300781 -0.429688 14.34375 0.671875 C 13.75 1.367188 13.101562 1.789062 12.40625 1.9375 C 11.71875 2.09375 10.972656 2.046875 10.171875 1.796875 C 10.148438 2.203125 10.113281 2.65625 10.0625 3.15625 C 10.007812 3.664062 9.941406 4.179688 9.859375 4.703125 C 9.773438 5.234375 9.671875 5.769531 9.546875 6.3125 C 9.421875 6.863281 9.296875 7.390625 9.171875 7.890625 L 6.6875 5.765625 C 6.789062 5.285156 6.890625 4.800781 6.984375 4.3125 C 7.078125 3.820312 7.160156 3.335938 7.234375 2.859375 C 7.304688 2.378906 7.367188 1.914062 7.421875 1.46875 C 7.484375 1.03125 7.515625 0.613281 7.515625 0.21875 L 6.4375 -0.71875 L 3.34375 2.875 L 1.140625 0.984375 L 9.46875 -8.6875 C 10.03125 -8.375 10.582031 -8.015625 11.125 -7.609375 C 11.675781 -7.203125 12.148438 -6.820312 12.546875 -6.46875 Z M 11.046875 -4.484375 C 10.890625 -4.617188 10.742188 -4.734375 10.609375 -4.828125 C 10.484375 -4.929688 10.359375 -5.03125 10.234375 -5.125 L 7.9375 -2.46875 L 8.5625 -1.921875 C 9.382812 -1.210938 10.066406 -0.804688 10.609375 -0.703125 C 11.148438 -0.609375 11.632812 -0.8125 12.0625 -1.3125 C 12.476562 -1.789062 12.59375 -2.285156 12.40625 -2.796875 C 12.21875 -3.316406 11.765625 -3.878906 11.046875 -4.484375 Z M 11.046875 -4.484375 "/></g></g></g><g fill="#433b32" fill-opacity="1"><g transform="translate(251.104378, 122.80124)"><g><path d="M 4.984375 2.328125 C 5.253906 2.640625 5.503906 2.875 5.734375 3.03125 C 5.960938 3.1875 6.171875 3.285156 6.359375 3.328125 C 6.554688 3.367188 6.734375 3.359375 6.890625 3.296875 C 7.054688 3.234375 7.21875 3.140625 7.375 3.015625 C 7.695312 2.734375 7.828125 2.347656 7.765625 1.859375 C 7.710938 1.367188 7.492188 0.65625 7.109375 -0.28125 C 6.929688 -0.695312 6.773438 -1.128906 6.640625 -1.578125 C 6.515625 -2.023438 6.453125 -2.46875 6.453125 -2.90625 C 6.453125 -3.351562 6.539062 -3.796875 6.71875 -4.234375 C 6.894531 -4.671875 7.207031 -5.082031 7.65625 -5.46875 C 8.113281 -5.863281 8.59375 -6.132812 9.09375 -6.28125 C 9.601562 -6.425781 10.117188 -6.453125 10.640625 -6.359375 C 11.160156 -6.273438 11.679688 -6.070312 12.203125 -5.75 C 12.734375 -5.425781 13.242188 -4.988281 13.734375 -4.4375 C 14.296875 -3.78125 14.710938 -3.148438 14.984375 -2.546875 C 15.253906 -1.953125 15.453125 -1.425781 15.578125 -0.96875 L 13.265625 -0.078125 C 13.171875 -0.472656 13.03125 -0.882812 12.84375 -1.3125 C 12.664062 -1.738281 12.375 -2.1875 11.96875 -2.65625 C 11.507812 -3.175781 11.109375 -3.488281 10.765625 -3.59375 C 10.421875 -3.707031 10.097656 -3.632812 9.796875 -3.375 C 9.617188 -3.21875 9.503906 -3.039062 9.453125 -2.84375 C 9.398438 -2.65625 9.394531 -2.441406 9.4375 -2.203125 C 9.476562 -1.960938 9.539062 -1.703125 9.625 -1.421875 C 9.71875 -1.148438 9.832031 -0.863281 9.96875 -0.5625 C 10.21875 0.113281 10.414062 0.71875 10.5625 1.25 C 10.71875 1.789062 10.78125 2.289062 10.75 2.75 C 10.71875 3.21875 10.585938 3.65625 10.359375 4.0625 C 10.140625 4.46875 9.796875 4.878906 9.328125 5.296875 C 8.421875 6.085938 7.4375 6.382812 6.375 6.1875 C 5.320312 5.988281 4.234375 5.242188 3.109375 3.953125 C 2.734375 3.523438 2.414062 3.113281 2.15625 2.71875 C 1.90625 2.332031 1.703125 1.96875 1.546875 1.625 C 1.390625 1.289062 1.269531 0.992188 1.1875 0.734375 C 1.101562 0.472656 1.039062 0.238281 1 0.03125 L 3.296875 -0.859375 C 3.390625 -0.429688 3.554688 0.0507812 3.796875 0.59375 C 4.046875 1.132812 4.441406 1.710938 4.984375 2.328125 Z M 4.984375 2.328125 "/></g></g></g><g fill="#433b32" fill-opacity="1"><g transform="translate(258.91074, 132.036498)"><g><path d="M 11.46875 -6.1875 L 13.140625 -3.8125 L 2.53125 3.609375 L 0.859375 1.234375 Z M 11.46875 -6.1875 "/></g></g></g><g fill="#433b32" fill-opacity="1"><g transform="translate(263.064732, 137.819312)"><g><path d="M 16.671875 3.515625 L 14.5 4.71875 L 12.640625 1.296875 L 3.453125 6.3125 L 2.046875 3.75 L 11.234375 -1.265625 L 9.375 -4.6875 L 11.546875 -5.890625 Z M 16.671875 3.515625 "/></g></g></g><g fill="#433b32" fill-opacity="1"><g transform="translate(269.016258, 148.796401)"><g><path d="M 9.3125 3.1875 C 10.332031 3.375 11.335938 3.535156 12.328125 3.671875 C 13.316406 3.804688 14.304688 3.90625 15.296875 3.96875 L 16.40625 6.984375 C 14.84375 6.796875 13.316406 6.570312 11.828125 6.3125 C 10.347656 6.050781 8.835938 5.757812 7.296875 5.4375 L 2.65625 7.15625 L 1.65625 4.4375 L 6.265625 2.71875 C 7.191406 1.457031 8.140625 0.238281 9.109375 -0.9375 C 10.085938 -2.113281 11.109375 -3.273438 12.171875 -4.421875 L 13.34375 -1.265625 C 12.644531 -0.566406 11.960938 0.144531 11.296875 0.875 C 10.628906 1.613281 9.96875 2.382812 9.3125 3.1875 Z M 9.3125 3.1875 "/></g></g></g><g fill="#a5a58d" fill-opacity="1"><g transform="translate(79.819086, 176.877922)"><g><path d="M 2.34375 -3.140625 L 2.34375 -1.1875 L 5.75 -1.1875 L 5.75 0 L 0.921875 0 L 0.921875 -7.140625 L 5.671875 -7.140625 L 5.671875 -5.953125 L 2.34375 -5.953125 L 2.34375 -4.28125 L 5.25 -4.28125 L 5.25 -3.140625 Z M 2.34375 -3.140625 "/></g></g></g><g fill="#a5a58d" fill-opacity="1"><g transform="translate(85.954389, 176.877922)"><g><path d="M 3.171875 0.109375 C 2.671875 0.109375 2.226562 0.046875 1.84375 -0.078125 C 1.457031 -0.203125 1.132812 -0.363281 0.875 -0.5625 C 0.625 -0.757812 0.425781 -0.976562 0.28125 -1.21875 L 1.0625 -2.15625 L 1.1875 -2.15625 C 1.40625 -1.84375 1.675781 -1.59375 2 -1.40625 C 2.332031 -1.21875 2.722656 -1.125 3.171875 -1.125 C 3.546875 -1.125 3.828125 -1.203125 4.015625 -1.359375 C 4.210938 -1.515625 4.3125 -1.734375 4.3125 -2.015625 C 4.3125 -2.179688 4.28125 -2.320312 4.21875 -2.4375 C 4.15625 -2.550781 4.050781 -2.648438 3.90625 -2.734375 C 3.757812 -2.816406 3.566406 -2.882812 3.328125 -2.9375 L 2.40625 -3.15625 C 1.769531 -3.300781 1.289062 -3.539062 0.96875 -3.875 C 0.65625 -4.21875 0.5 -4.660156 0.5 -5.203125 C 0.5 -5.609375 0.597656 -5.960938 0.796875 -6.265625 C 1.003906 -6.578125 1.300781 -6.816406 1.6875 -6.984375 C 2.070312 -7.148438 2.535156 -7.234375 3.078125 -7.234375 C 3.617188 -7.234375 4.085938 -7.160156 4.484375 -7.015625 C 4.878906 -6.878906 5.210938 -6.660156 5.484375 -6.359375 L 4.78125 -5.40625 L 4.65625 -5.40625 C 4.457031 -5.613281 4.226562 -5.769531 3.96875 -5.875 C 3.707031 -5.976562 3.410156 -6.03125 3.078125 -6.03125 C 2.679688 -6.03125 2.382812 -5.960938 2.1875 -5.828125 C 1.988281 -5.691406 1.890625 -5.503906 1.890625 -5.265625 C 1.890625 -5.035156 1.957031 -4.851562 2.09375 -4.71875 C 2.238281 -4.59375 2.484375 -4.492188 2.828125 -4.421875 L 3.765625 -4.21875 C 4.460938 -4.070312 4.96875 -3.820312 5.28125 -3.46875 C 5.59375 -3.125 5.75 -2.671875 5.75 -2.109375 C 5.75 -1.660156 5.648438 -1.269531 5.453125 -0.9375 C 5.265625 -0.601562 4.976562 -0.34375 4.59375 -0.15625 C 4.207031 0.0195312 3.734375 0.109375 3.171875 0.109375 Z M 3.171875 0.109375 "/></g></g></g><g fill="#a5a58d" fill-opacity="1"><g transform="translate(92.084806, 176.877922)"><g><path d="M 5.71875 -7.140625 L 5.71875 -5.953125 L 3.65625 -5.953125 L 3.65625 0 L 2.25 0 L 2.25 -5.953125 L 0.203125 -5.953125 L 0.203125 -7.140625 Z M 5.71875 -7.140625 "/></g></g></g><g fill="#a5a58d" fill-opacity="1"><g transform="translate(98.000462, 176.877922)"><g><path d="M 3.5 -7.140625 C 4.65625 -7.140625 5.535156 -6.835938 6.140625 -6.234375 C 6.753906 -5.640625 7.0625 -4.75 7.0625 -3.5625 C 7.0625 -2.382812 6.753906 -1.492188 6.140625 -0.890625 C 5.535156 -0.296875 4.65625 0 3.5 0 L 0.921875 0 L 0.921875 -7.140625 Z M 3.40625 -1.1875 C 4.144531 -1.1875 4.695312 -1.375 5.0625 -1.75 C 5.425781 -2.125 5.609375 -2.726562 5.609375 -3.5625 C 5.609375 -4.40625 5.425781 -5.015625 5.0625 -5.390625 C 4.695312 -5.765625 4.144531 -5.953125 3.40625 -5.953125 L 2.34375 -5.953125 L 2.34375 -1.1875 Z M 3.40625 -1.1875 "/></g></g></g><g fill="#a5a58d" fill-opacity="1"><g transform="translate(268.854332, 176.877922)"><g><path d="M 0.34375 -0.5625 C 0.34375 -0.957031 0.382812 -1.289062 0.46875 -1.5625 C 0.5625 -1.832031 0.703125 -2.078125 0.890625 -2.296875 C 1.085938 -2.523438 1.367188 -2.765625 1.734375 -3.015625 L 2.6875 -3.71875 C 2.945312 -3.894531 3.144531 -4.050781 3.28125 -4.1875 C 3.425781 -4.332031 3.535156 -4.476562 3.609375 -4.625 C 3.679688 -4.769531 3.71875 -4.941406 3.71875 -5.140625 C 3.71875 -5.429688 3.628906 -5.65625 3.453125 -5.8125 C 3.285156 -5.96875 3.023438 -6.046875 2.671875 -6.046875 C 2.328125 -6.046875 2.023438 -5.960938 1.765625 -5.796875 C 1.503906 -5.640625 1.285156 -5.421875 1.109375 -5.140625 L 1.015625 -5.125 L 0.25 -5.984375 C 0.5 -6.359375 0.828125 -6.660156 1.234375 -6.890625 C 1.640625 -7.117188 2.132812 -7.234375 2.71875 -7.234375 C 3.257812 -7.234375 3.707031 -7.144531 4.0625 -6.96875 C 4.425781 -6.800781 4.691406 -6.5625 4.859375 -6.25 C 5.035156 -5.945312 5.125 -5.597656 5.125 -5.203125 C 5.125 -4.867188 5.050781 -4.5625 4.90625 -4.28125 C 4.769531 -4 4.578125 -3.738281 4.328125 -3.5 C 4.078125 -3.269531 3.753906 -3.015625 3.359375 -2.734375 L 2.515625 -2.15625 C 2.265625 -1.96875 2.085938 -1.800781 1.984375 -1.65625 C 1.890625 -1.519531 1.84375 -1.363281 1.84375 -1.1875 L 5.0625 -1.1875 L 5.0625 0 L 0.34375 0 Z M 0.34375 -0.5625 "/></g></g></g><g fill="#a5a58d" fill-opacity="1"><g transform="translate(274.42345, 176.877922)"><g><path d="M 3.484375 0.109375 C 2.898438 0.109375 2.390625 -0.0195312 1.953125 -0.28125 C 1.523438 -0.539062 1.191406 -0.941406 0.953125 -1.484375 C 0.710938 -2.035156 0.59375 -2.726562 0.59375 -3.5625 C 0.59375 -4.40625 0.710938 -5.097656 0.953125 -5.640625 C 1.191406 -6.191406 1.523438 -6.59375 1.953125 -6.84375 C 2.390625 -7.101562 2.898438 -7.234375 3.484375 -7.234375 C 4.066406 -7.234375 4.570312 -7.101562 5 -6.84375 C 5.4375 -6.59375 5.773438 -6.191406 6.015625 -5.640625 C 6.253906 -5.097656 6.375 -4.40625 6.375 -3.5625 C 6.375 -2.726562 6.253906 -2.035156 6.015625 -1.484375 C 5.773438 -0.941406 5.4375 -0.539062 5 -0.28125 C 4.570312 -0.0195312 4.066406 0.109375 3.484375 0.109375 Z M 3.484375 -1.09375 C 3.804688 -1.09375 4.070312 -1.171875 4.28125 -1.328125 C 4.5 -1.484375 4.664062 -1.742188 4.78125 -2.109375 C 4.894531 -2.472656 4.953125 -2.957031 4.953125 -3.5625 C 4.953125 -4.175781 4.894531 -4.664062 4.78125 -5.03125 C 4.664062 -5.394531 4.5 -5.65625 4.28125 -5.8125 C 4.070312 -5.96875 3.804688 -6.046875 3.484375 -6.046875 C 3.171875 -6.046875 2.90625 -5.96875 2.6875 -5.8125 C 2.46875 -5.65625 2.300781 -5.394531 2.1875 -5.03125 C 2.070312 -4.664062 2.015625 -4.175781 2.015625 -3.5625 C 2.015625 -2.957031 2.070312 -2.472656 2.1875 -2.109375 C 2.300781 -1.742188 2.46875 -1.484375 2.6875 -1.328125 C 2.90625 -1.171875 3.171875 -1.09375 3.484375 -1.09375 Z M 3.484375 -1.09375 "/></g></g></g><g fill="#a5a58d" fill-opacity="1"><g transform="translate(281.398269, 176.877922)"><g><path d="M 0.34375 -0.5625 C 0.34375 -0.957031 0.382812 -1.289062 0.46875 -1.5625 C 0.5625 -1.832031 0.703125 -2.078125 0.890625 -2.296875 C 1.085938 -2.523438 1.367188 -2.765625 1.734375 -3.015625 L 2.6875 -3.71875 C 2.945312 -3.894531 3.144531 -4.050781 3.28125 -4.1875 C 3.425781 -4.332031 3.535156 -4.476562 3.609375 -4.625 C 3.679688 -4.769531 3.71875 -4.941406 3.71875 -5.140625 C 3.71875 -5.429688 3.628906 -5.65625 3.453125 -5.8125 C 3.285156 -5.96875 3.023438 -6.046875 2.671875 -6.046875 C 2.328125 -6.046875 2.023438 -5.960938 1.765625 -5.796875 C 1.503906 -5.640625 1.285156 -5.421875 1.109375 -5.140625 L 1.015625 -5.125 L 0.25 -5.984375 C 0.5 -6.359375 0.828125 -6.660156 1.234375 -6.890625 C 1.640625 -7.117188 2.132812 -7.234375 2.71875 -7.234375 C 3.257812 -7.234375 3.707031 -7.144531 4.0625 -6.96875 C 4.425781 -6.800781 4.691406 -6.5625 4.859375 -6.25 C 5.035156 -5.945312 5.125 -5.597656 5.125 -5.203125 C 5.125 -4.867188 5.050781 -4.5625 4.90625 -4.28125 C 4.769531 -4 4.578125 -3.738281 4.328125 -3.5 C 4.078125 -3.269531 3.753906 -3.015625 3.359375 -2.734375 L 2.515625 -2.15625 C 2.265625 -1.96875 2.085938 -1.800781 1.984375 -1.65625 C 1.890625 -1.519531 1.84375 -1.363281 1.84375 -1.1875 L 5.0625 -1.1875 L 5.0625 0 L 0.34375 0 Z M 0.34375 -0.5625 "/></g></g></g><g fill="#a5a58d" fill-opacity="1"><g transform="translate(286.967387, 176.877922)"><g><path d="M 4.84375 0 L 3.5 0 L 3.5 -1.546875 L 0.25 -1.546875 L 0.25 -2.6875 L 3.046875 -7.140625 L 4.84375 -7.140625 L 4.84375 -2.6875 L 5.953125 -2.6875 L 5.953125 -1.546875 L 4.84375 -1.546875 Z M 1.6875 -2.796875 L 1.734375 -2.6875 L 3.5 -2.6875 L 3.5 -5.453125 L 3.390625 -5.46875 Z M 1.6875 -2.796875 "/></g></g></g></svg>